<?xml version="1.0" standalone="no"?>
<!DOCTYPE svg PUBLIC "-//W3C//DTD SVG 20010904//EN"
 "http://www.w3.org/TR/2001/REC-SVG-20010904/DTD/svg10.dtd">
<svg version="1.0" xmlns="http://www.w3.org/2000/svg"
 width="200.000000pt" height="200.000000pt" viewBox="0 0 200.000000 200.000000"
 preserveAspectRatio="xMidYMid meet">

<g transform="translate(0.000000,200.000000) scale(0.100000,-0.100000)"
fill="#000000" stroke="none">
<path d="M355 1915 l-25 -24 0 -450 0 -450 26 -20 c25 -20 39 -21 285 -21
l259 0 0 -99 0 -100 -47 -3 c-27 -2 -47 -7 -45 -13 1 -6 85 -10 227 -10 142 0
226 4 228 10 1 6 -19 11 -45 13 l-48 3 0 100 0 99 259 0 c246 0 260 1 285 21
l26 20 0 450 0 450 -25 24 -24 25 -656 0 -656 0 -24 -25z m1333 -21 l22 -15 0
-434 c0 -381 -2 -435 -16 -449 -14 -14 -87 -16 -659 -16 -572 0 -645 2 -659
16 -14 14 -16 68 -16 449 l0 434 22 15 c20 14 98 16 653 16 555 0 633 -2 653
-16z m-558 -1044 l0 -100 -95 0 -95 0 0 100 0 100 95 0 95 0 0 -100z"/>
<path d="M1123 1698 c-12 -15 -203 -494 -203 -508 0 -6 6 -10 14 -10 19 0 222
508 209 521 -6 6 -13 5 -20 -3z"/>
<path d="M651 1542 c-85 -48 -156 -92 -158 -98 -3 -10 291 -179 311 -179 5 0
11 5 13 12 2 6 -55 44 -127 83 -71 40 -132 76 -135 80 -3 5 53 41 125 80 133
74 149 85 134 100 -5 5 -78 -30 -163 -78z"/>
<path d="M1255 1620 c-11 -17 1 -26 135 -100 72 -39 128 -75 125 -80 -3 -4
-64 -40 -135 -80 -72 -39 -129 -77 -127 -83 2 -7 8 -12 13 -12 20 0 314 169
311 179 -3 10 -57 42 -249 149 -40 22 -69 33 -73 27z"/>
<path d="M506 611 c-9 -15 188 -466 204 -466 9 0 32 41 61 109 l46 108 44
-107 c40 -97 60 -127 75 -112 10 10 194 451 194 465 0 7 -8 12 -17 10 -13 -2
-41 -59 -95 -188 -42 -102 -81 -194 -86 -204 -7 -16 -17 1 -50 85 l-42 105 40
93 c22 51 38 97 35 102 -15 24 -36 3 -61 -62 -15 -38 -30 -72 -34 -74 -4 -2
-20 28 -37 68 -18 43 -36 73 -46 75 -25 5 -21 -16 18 -108 19 -45 35 -89 34
-98 0 -10 -17 -60 -38 -112 l-39 -95 -14 35 c-9 19 -48 113 -88 208 -66 156
-88 190 -104 163z"/>
<path d="M1158 604 c-12 -12 2 -24 27 -24 l25 0 2 -212 3 -213 137 0 c123 0
139 2 165 21 61 46 67 141 12 196 l-29 30 20 25 c31 40 27 105 -9 145 l-29 33
-159 3 c-87 2 -162 0 -165 -4z m291 -35 c57 -20 70 -88 25 -130 -23 -21 -36
-24 -125 -27 l-99 -4 0 86 0 86 84 0 c45 0 97 -5 115 -11z m49 -222 c37 -38
37 -100 0 -132 -29 -25 -114 -39 -198 -33 l-45 3 -3 84 c-2 46 0 91 3 99 4 12
24 14 111 10 98 -4 107 -7 132 -31z"/>
</g>
</svg>
