<?xml version="1.0" standalone="no"?>
<!DOCTYPE svg PUBLIC "-//W3C//DTD SVG 20010904//EN"
 "http://www.w3.org/TR/2001/REC-SVG-20010904/DTD/svg10.dtd">
<svg version="1.0" xmlns="http://www.w3.org/2000/svg"
 width="315.000000pt" height="344.000000pt" viewBox="0 0 315.000000 344.000000"
 preserveAspectRatio="xMidYMid meet">

<g transform="translate(0.000000,344.000000) scale(0.100000,-0.100000)"
fill="#000000" stroke="none">
<path d="M0 1720 l0 -1720 1575 0 1575 0 0 1720 0 1720 -1575 0 -1575 0 0
-1720z m2333 1226 l707 -409 -2 -840 -3 -840 -710 -410 c-390 -225 -717 -411
-725 -414 -8 -2 -337 182 -730 409 l-715 413 0 845 0 845 705 407 c563 326
711 408 735 405 18 -1 321 -170 738 -411z"/>
<path d="M916 2867 l-676 -391 2 -779 3 -778 674 -390 673 -389 672 388 671
388 3 781 2 781 -497 288 c-274 158 -577 333 -674 390 l-177 102 -676 -391z
m-114 -1089 l3 -293 33 -3 c34 -3 47 -32 13 -32 -10 0 -39 -3 -65 -6 -45 -7
-46 -6 -46 20 0 32 0 32 -46 1 -44 -30 -93 -32 -149 -6 -146 66 -151 276 -10
359 54 31 143 27 180 -8 l25 -23 0 109 c0 117 -6 134 -47 134 -13 0 -23 6 -23
15 0 10 16 15 58 18 31 2 60 4 64 5 4 1 9 -130 10 -290z m1760 249 c68 -33
100 -74 102 -127 1 -52 -27 -88 -92 -122 l-52 -26 35 -22 c46 -28 62 -61 76
-152 13 -87 32 -128 59 -128 28 0 60 35 60 65 0 14 5 25 10 25 20 0 10 -61
-15 -85 -31 -32 -76 -32 -135 -2 -54 26 -69 60 -69 159 -1 61 -4 69 -32 97
-29 29 -35 31 -110 31 l-79 0 0 -113 c0 -127 7 -144 59 -149 19 -2 36 -9 39
-15 3 -10 -27 -13 -127 -13 -110 0 -131 2 -131 15 0 11 11 15 39 15 26 0 41 5
45 16 3 9 6 127 6 263 0 179 -3 250 -12 259 -7 7 -27 12 -45 12 -24 0 -33 5
-33 16 0 14 20 16 173 12 165 -3 174 -4 229 -31z m-1072 -112 l0 -85 65 0 c83
0 85 -18 3 -22 l-63 -3 0 -152 c0 -144 1 -154 22 -175 19 -19 26 -20 48 -10
30 14 45 48 45 103 0 21 5 39 10 39 6 0 10 -21 10 -47 0 -55 -27 -108 -60
-118 -34 -11 -85 3 -111 31 -23 24 -24 33 -27 179 l-3 154 -42 3 -42 3 37 17
c44 20 75 66 84 125 11 72 24 48 24 -42z m-348 -75 c20 -6 50 -26 67 -46 l31
-35 0 -125 c0 -69 5 -134 10 -145 24 -43 60 -10 60 55 0 20 5 36 10 36 6 0 10
-20 10 -45 0 -57 -25 -85 -75 -85 -29 0 -39 6 -54 31 -14 23 -20 27 -24 15
-10 -26 -69 -56 -110 -56 -116 0 -173 88 -107 164 36 40 89 63 165 72 55 7 55
7 55 41 0 45 -22 86 -55 101 -34 16 -48 15 -92 -3 l-36 -15 21 -21 c12 -11 22
-26 22 -33 0 -21 -26 -38 -52 -34 -18 2 -24 10 -26 37 -7 72 83 117 180 91z
m790 0 c20 -6 50 -26 67 -46 l31 -35 0 -125 c0 -69 5 -134 10 -145 24 -43 60
-10 60 55 0 20 5 36 10 36 6 0 10 -20 10 -45 0 -57 -25 -85 -75 -85 -29 0 -39
6 -54 31 -14 23 -20 27 -24 15 -10 -26 -69 -56 -110 -56 -116 0 -173 88 -107
164 36 40 89 63 165 72 55 7 55 7 55 41 0 45 -22 86 -55 101 -34 16 -48 15
-92 -3 l-36 -15 21 -21 c12 -11 22 -26 22 -33 0 -21 -26 -38 -52 -34 -18 2
-24 10 -26 37 -7 72 83 117 180 91z"/>
<path d="M566 1799 c-44 -35 -59 -76 -59 -159 0 -83 15 -124 59 -159 49 -38
129 -19 159 39 19 36 21 206 3 245 -24 54 -113 73 -162 34z"/>
<path d="M2331 2016 c-8 -9 -11 -54 -9 -132 l3 -119 75 0 c130 1 170 34 170
138 0 92 -47 127 -171 127 -36 0 -61 -5 -68 -14z"/>
<path d="M1085 1646 c-79 -34 -110 -125 -59 -165 40 -31 80 -27 120 13 32 32
34 38 34 100 l0 66 -32 0 c-18 -1 -47 -7 -63 -14z"/>
<path d="M1875 1646 c-79 -34 -110 -125 -59 -165 40 -31 80 -27 120 13 32 32
34 38 34 100 l0 66 -32 0 c-18 -1 -47 -7 -63 -14z"/>
</g>
</svg>
